<svg xmlns="http://www.w3.org/2000/svg" width="924" height="264" viewBox="0 0 924 264">
  <metadata><?xpacket begin="﻿" id="W5M0MpCehiHzreSzNTczkc9d"?>
<x:xmpmeta xmlns:x="adobe:ns:meta/" x:xmptk="Adobe XMP Core 5.6-c142 79.160924, 2017/07/13-01:06:39        ">
   <rdf:RDF xmlns:rdf="http://www.w3.org/1999/02/22-rdf-syntax-ns#">
      <rdf:Description rdf:about=""/>
   </rdf:RDF>
</x:xmpmeta>
                                                                                                    
                                                                                                    
                                                                                                    
                                                                                                    
                                                                                                    
                                                                                                    
                                                                                                    
                                                                                                    
                                                                                                    
                                                                                                    
                                                                                                    
                                                                                                    
                                                                                                    
                                                                                                    
                                                                                                    
                                                                                                    
                                                                                                    
                                                                                                    
                                                                                                    
                                                                                                    
                           
<?xpacket end="w"?></metadata>
<defs>
    <style>
      .cls-1 {
        fill: #494949;
        fill-rule: evenodd;
      }
    </style>
  </defs>
  <path id="静思一得" class="cls-1" d="M93.83,138.794h45.242v32.478H105.2V186.4h33.876v18.908a12.923,12.923,0,0,1-12.926,12.9H113.665v15.126h12.481a28.224,28.224,0,0,0,28.082-28.029V186.4h16.938a24.234,24.234,0,0,0,24.069-24.025v-23.58h9.138V123.667h-9.138V104.091a24.145,24.145,0,0,0-15.823-22.468l16.269-35.37h-68.2l4.9-9.343-13.595-6.9L102.745,61.6h69.312l-8.692,18.464H105.2V95.193h33.876v28.474H93.83v15.127ZM19.392,233.781V206.642H77.56v7.119a4.7,4.7,0,0,1-4.68,4.671H59.062v15.127H72.88a19.718,19.718,0,0,0,19.835-19.8V145.912a19.581,19.581,0,0,0-19.835-19.8H24.072a19.86,19.86,0,0,0-19.835,19.8v87.869H19.392ZM41.01,30.236V44.473H2.9V59.6H41.01V72.725H5.8V87.852H41.01v14.237H0v15.127H96.95V102.089H56.165V87.852H91.155V72.725H56.165V59.6H94.053V44.473H56.165V30.236H41.01ZM19.392,145.912a4.7,4.7,0,0,1,4.68-4.671H72.88a4.857,4.857,0,0,1,4.68,4.671v12.9H19.392v-12.9Zm0,28.252H77.56v17.351H19.392V174.164Zm151.775-2.892H154.228V138.794H180.08v23.58A8.932,8.932,0,0,1,171.166,171.272Zm0-76.079a8.932,8.932,0,0,1,8.914,8.9v19.576H154.228V95.193h16.938Zm211.506,49.829a28.224,28.224,0,0,0,28.082-28.029V58.71a28.225,28.225,0,0,0-28.082-28.029H268.786A28.225,28.225,0,0,0,240.7,58.71v58.283a28.224,28.224,0,0,0,28.082,28.029H382.672ZM379.329,217.1H307.788c-7.132,0-12.926-4.894-12.926-11.122V154.143H279.706v51.832c0,14.237,12.7,26.249,28.082,26.249h71.541V217.1Zm3.343-87.2H332.527V94.748H395.6v22.245A12.924,12.924,0,0,1,382.672,129.9Zm-113.886,0a12.924,12.924,0,0,1-12.927-12.9V94.748h61.512V129.9H268.786ZM382.672,45.808A12.784,12.784,0,0,1,395.6,58.71V79.621H332.527V45.808h50.145ZM255.859,58.71a12.784,12.784,0,0,1,12.927-12.9h48.585V79.621H255.859V58.71Zm131.493,95.655,23.179,78.527,14.709-4-23.178-78.526Zm-142.636-3.114a252.6,252.6,0,0,1-19.835,75.189l14.04,6.229c10.029-23.135,17.384-49.385,20.95-79.638Zm86.028,2.892v43.378H345.9V154.143H330.744Zm119.238-20.688h195.9V118.328h-195.9v15.127ZM745.51,96.083a24.235,24.235,0,0,0,24.07,24.025h72.656a23.9,23.9,0,0,0,23.847-24.025V55.151a23.9,23.9,0,0,0-23.847-24.025H769.58a24.235,24.235,0,0,0-24.07,24.025V96.083Zm-6.24,50.274h96.28v16.684H733.475v15.127H835.55v27.584a12.924,12.924,0,0,1-12.927,12.9H803.679v15.126h18.944a28.225,28.225,0,0,0,28.082-28.029V178.168h22.287V163.041H850.705V146.357h22.287V131.23H739.27v15.127Zm-58.392-2.224,21.173-23.8V234h15.155V80.066L669.512,133.9Zm161.358-39.152H769.58a8.791,8.791,0,0,1-8.914-8.9V83.18h90.262v12.9A8.889,8.889,0,0,1,842.236,104.981Zm-81.57-49.83a8.609,8.609,0,0,1,8.914-8.676h72.656a8.7,8.7,0,0,1,8.692,8.676v12.9H760.666v-12.9ZM680.21,99.419l52.6-58.728L721.218,30.459,668.843,89.187Zm69.535,94.766L782.284,221.1l9.806-11.345-32.539-27.139Z"/>
</svg>
